<?xml version="1.0" encoding="UTF-8" standalone="no"?>
<!DOCTYPE svg PUBLIC "-//W3C//DTD SVG 1.1//EN"
"http://www.w3.org/Graphics/SVG/1.1/DTD/svg11.dtd">


<!-- Page 1 -->
<svg x="0" y="0" width="100" height="100" viewBox="0 0 2000 2000" version="1.1" xmlns="http://www.w3.org/2000/svg" xmlns:xlink="http://www.w3.org/1999/xlink"
style="display: block;margin-left: auto;margin-right: auto;">
<defs>
<clipPath id="c_1"><path d="M0,0H1466V825H0Z"/></clipPath>
<clipPath id="c0"><path d="M0,825V0H1466.6V825Z"/></clipPath>

<style type="text/css"><![CDATA[
text { white-space: pre; }
path, image { pointer-events: none; }
text::-moz-selection {
	color: transparent;
	background: rgba(0, 106, 173, 0.4);
}
text::selection {
	color: transparent;
	background: rgba(0, 106, 173, 0.4);
}

.s1{
font-size: 82.50px;
font-family: DejaVuSans_9;
fill: TRANSPARENT;
}

.g0{
fill: #FFFFFF;
}
.g1{
fill: #AF0000;
}
.g2{
fill: none;
stroke: #AF0000;
stroke-width: 1.515;
stroke-linecap: butt;
stroke-linejoin: miter;
stroke-miterlimit: 7;
}
.g3{
}
.g4{
fill: none;
stroke: #325490;
stroke-width: 1.515;
stroke-linecap: butt;
stroke-linejoin: miter;
stroke-miterlimit: 7;
}

]]></style>

</defs>
<g clip-path="url(#c_1)">
<path fill-rule="evenodd" d="M424.1,191.1v-.6l.1,-.7l.1,-.7l.1,-.6l.1,-.6l.2,-.7l.2,-.6l.3,-.6l.3,-.6l.3,-.6l.3,-.5l.4,-.6l.4,-.5l.5,-.5l.4,-.5l.5,-.4l.5,-.5l.5,-.4l.6,-.4l.5,-.3l.6,-.3l.6,-.3l.6,-.3l.6,-.2l.7,-.2l.6,-.1l.6,-.1l.7,-.1l.7,-.1h51.8l.6,.1l.7,.1l.7,.1l.6,.1l.6,.2l.7,.2l.6,.3l.6,.3l.6,.3l.5,.3l.6,.4l.5,.4l.5,.5l.5,.4l.4,.5l.4,.5l.4,.5l.4,.6l.4,.5l.3,.6l.3,.6l.2,.6l.2,.6l.2,.7l.2,.6l.1,.6l.1,.7l.1,.7V426.4l-.1,.6l-.1,.7l-.1,.6l-.2,.7l-.2,.6l-.2,.6l-.2,.6l-.3,.6l-.3,.6l-.4,.6l-.3,.5l-.5,.5l-.4,.5l-.4,.5l-.5,.5l-.5,.4l-.5,.4l-.6,.4l-.5,.3l-.6,.3l-.6,.3l-.6,.2l-.6,.3l-.7,.2l-.6,.1l-.7,.1l-.6,.1l-.7,.1h-.6l-50.6,.1v-.1h-.6l-.7,-.1l-.6,-.1h-.7l-.6,-.2l-.7,-.2l-.6,-.2l-.6,-.3l-.6,-.3l-.6,-.3l-.5,-.3l-.6,-.4l-.5,-.4l-.5,-.4l-.5,-.5l-.4,-.4l-.5,-.5l-.4,-.5l-.4,-.6l-.3,-.6l-.3,-.5l-.3,-.6l-.2,-.6l-.3,-.7l-.2,-.6l-.1,-.6l-.1,-.7l-.1,-.6l-.1,-.7V191.1Z" class="g1"/>
<path d="M424.1,191.1v-.6l.1,-.7l.1,-.7l.1,-.6l.1,-.6l.2,-.7l.2,-.6l.3,-.6l.3,-.6l.3,-.6l.3,-.5l.4,-.6l.4,-.5l.5,-.5l.4,-.5l.5,-.4l.5,-.5l.5,-.4l.6,-.4l.5,-.3l.6,-.3l.6,-.3l.6,-.3l.6,-.2l.7,-.2l.6,-.1l.6,-.1l.7,-.1l.7,-.1h51.8l.6,.1l.7,.1l.7,.1l.6,.1l.6,.2l.7,.2l.6,.3l.6,.3l.6,.3l.5,.3l.6,.4l.5,.4l.5,.5l.5,.4l.4,.5l.4,.5l.4,.5l.4,.6l.4,.5l.3,.6l.3,.6l.2,.6l.2,.6l.2,.7l.2,.6l.1,.6l.1,.7l.1,.7V426.4l-.1,.6l-.1,.7l-.1,.6l-.2,.7l-.2,.6l-.2,.6l-.2,.6l-.3,.6l-.3,.6l-.4,.6l-.3,.5l-.5,.5l-.4,.5l-.4,.5l-.5,.5l-.5,.4l-.5,.4l-.6,.4l-.5,.3l-.6,.3l-.6,.3l-.6,.2l-.6,.3l-.7,.2l-.6,.1l-.7,.1l-.6,.1l-.7,.1h-.6l-50.6,.1v-.1h-.6l-.7,-.1l-.6,-.1h-.7l-.6,-.2l-.7,-.2l-.6,-.2l-.6,-.3l-.6,-.3l-.6,-.3l-.5,-.3l-.6,-.4l-.5,-.4l-.5,-.4l-.5,-.5l-.4,-.4l-.5,-.5l-.4,-.5l-.4,-.6l-.3,-.6l-.3,-.5l-.3,-.6l-.2,-.6l-.3,-.7l-.2,-.6l-.1,-.6l-.1,-.7l-.1,-.6l-.1,-.7V191.1Z" class="g2"/>
<path fill-rule="evenodd" d="M669.2,30.4v-.6l.1,-.7l.1,-.6l.1,-.7l.2,-.6l.1,-.7l.2,-.6l.3,-.6l.3,-.6l.3,-.6l.4,-.5l.3,-.6l.4,-.5l.5,-.5l.4,-.5l.5,-.4l.5,-.4l.5,-.4l.6,-.4l.5,-.4l.6,-.3l.6,-.3l.6,-.2l.6,-.3l.7,-.1l.6,-.2l.6,-.1l.7,-.1l.7,-.1H733l.7,.1l.7,.1l.6,.1l.6,.2l.7,.1l.6,.3l.6,.2l.6,.3l.6,.3l.5,.4l.6,.4l.5,.4l.5,.4l.5,.4l.4,.5l.5,.5l.3,.5l.4,.6l.4,.6l.3,.5l.3,.6l.2,.6l.3,.6l.1,.7l.2,.6l.1,.7l.1,.6l.1,.7V426.4l-.1,.6l-.1,.7l-.1,.6l-.2,.7l-.1,.6l-.3,.6l-.2,.6l-.3,.6l-.3,.6l-.4,.6l-.3,.5l-.4,.5l-.4,.5l-.5,.5l-.5,.5l-.5,.4l-.5,.4l-.5,.4l-.6,.3l-.6,.3l-.6,.3l-.6,.2l-.6,.3l-.6,.2l-.7,.1l-.6,.1l-.7,.1l-.6,.1h-.7l-50.6,.1v-.1h-.6l-.7,-.1l-.6,-.1h-.7l-.6,-.2l-.7,-.2l-.6,-.2l-.6,-.3l-.6,-.3l-.6,-.3l-.5,-.3l-.6,-.4l-.5,-.4l-.5,-.4l-.5,-.5l-.4,-.4l-.5,-.5l-.4,-.5l-.3,-.6l-.4,-.6l-.3,-.5l-.3,-.6l-.2,-.6l-.3,-.7l-.1,-.6l-.2,-.6l-.1,-.7l-.1,-.6l-.1,-.7V30.4Z" class="g3"/>
<path d="M669.2,30.4v-.6l.1,-.7l.1,-.6l.1,-.7l.2,-.6l.1,-.7l.2,-.6l.3,-.6l.3,-.6l.3,-.6l.4,-.5l.3,-.6l.4,-.5l.5,-.5l.4,-.5l.5,-.4l.5,-.4l.5,-.4l.6,-.4l.5,-.4l.6,-.3l.6,-.3l.6,-.2l.6,-.3l.7,-.1l.6,-.2l.6,-.1l.7,-.1l.7,-.1H733l.7,.1l.7,.1l.6,.1l.6,.2l.7,.1l.6,.3l.6,.2l.6,.3l.6,.3l.5,.4l.6,.4l.5,.4l.5,.4l.5,.4l.4,.5l.5,.5l.3,.5l.4,.6l.4,.6l.3,.5l.3,.6l.2,.6l.3,.6l.1,.7l.2,.6l.1,.7l.1,.6l.1,.7V426.4l-.1,.6l-.1,.7l-.1,.6l-.2,.7l-.1,.6l-.3,.6l-.2,.6l-.3,.6l-.3,.6l-.4,.6l-.3,.5l-.4,.5l-.4,.5l-.5,.5l-.5,.5l-.5,.4l-.5,.4l-.5,.4l-.6,.3l-.6,.3l-.6,.3l-.6,.2l-.6,.3l-.6,.2l-.7,.1l-.6,.1l-.7,.1l-.6,.1h-.7l-50.6,.1v-.1h-.6l-.7,-.1l-.6,-.1h-.7l-.6,-.2l-.7,-.2l-.6,-.2l-.6,-.3l-.6,-.3l-.6,-.3l-.5,-.3l-.6,-.4l-.5,-.4l-.5,-.4l-.5,-.5l-.4,-.4l-.5,-.5l-.4,-.5l-.3,-.6l-.4,-.6l-.3,-.5l-.3,-.6l-.2,-.6l-.3,-.7l-.1,-.6l-.2,-.6l-.1,-.7l-.1,-.6l-.1,-.7V30.4Z" class="g4"/>
<path fill-rule="evenodd" d="M546.7,191.1v-.6l.1,-.7v-.7l.1,-.6l.2,-.6l.2,-.7l.2,-.6l.2,-.6l.4,-.6l.3,-.6l.3,-.5l.4,-.6l.4,-.5l.4,-.5l.4,-.5l.5,-.4l.5,-.5l.6,-.4l.5,-.4l.6,-.3l.6,-.3l.6,-.3l.6,-.3l.6,-.2l.6,-.2l.6,-.1l.7,-.1l.7,-.1l.6,-.1h51.9l.6,.1l.7,.1l.6,.1l.7,.1l.6,.2l.6,.2l.6,.3l.6,.3l.6,.3l.5,.3l.6,.4l.5,.4l.6,.5l.4,.4l.5,.5l.4,.5l.4,.5l.4,.6l.3,.5l.3,.6l.3,.6l.3,.6l.2,.6l.2,.7l.1,.6l.1,.6l.1,.7l.1,.7v.6l.1,234.6h-.1v.7l-.1,.6l-.1,.7l-.1,.6l-.1,.7l-.2,.6l-.2,.6l-.3,.6l-.3,.6l-.3,.6l-.3,.6l-.4,.5l-.4,.5l-.4,.5l-.5,.5l-.4,.5l-.5,.4l-.5,.4l-.6,.4l-.6,.3l-.5,.3l-.6,.3l-.6,.2l-.7,.3l-.6,.2l-.7,.1l-.6,.1l-.7,.1l-.6,.1h-.6l-50.6,.1v-.1h-.7l-.6,-.1l-.7,-.1h-.6l-.7,-.2l-.6,-.2l-.6,-.2l-.6,-.3l-.6,-.3l-.6,-.3l-.6,-.3l-.5,-.4l-.6,-.4l-.4,-.4l-.5,-.5l-.5,-.4l-.4,-.5l-.4,-.5l-.4,-.6l-.3,-.6l-.3,-.5l-.4,-.6l-.2,-.6l-.2,-.7l-.2,-.6l-.1,-.6l-.2,-.7v-.6l-.1,-.7V191.1Z" class="g1"/>
<path d="M546.7,191.1v-.6l.1,-.7v-.7l.1,-.6l.2,-.6l.2,-.7l.2,-.6l.2,-.6l.4,-.6l.3,-.6l.3,-.5l.4,-.6l.4,-.5l.4,-.5l.4,-.5l.5,-.4l.5,-.5l.6,-.4l.5,-.4l.6,-.3l.6,-.3l.6,-.3l.6,-.3l.6,-.2l.6,-.2l.6,-.1l.7,-.1l.7,-.1l.6,-.1h51.9l.6,.1l.7,.1l.6,.1l.7,.1l.6,.2l.6,.2l.6,.3l.6,.3l.6,.3l.5,.3l.6,.4l.5,.4l.6,.5l.4,.4l.5,.5l.4,.5l.4,.5l.4,.6l.3,.5l.3,.6l.3,.6l.3,.6l.2,.6l.2,.7l.1,.6l.1,.6l.1,.7l.1,.7v.6l.1,234.6h-.1v.7l-.1,.6l-.1,.7l-.1,.6l-.1,.7l-.2,.6l-.2,.6l-.3,.6l-.3,.6l-.3,.6l-.3,.6l-.4,.5l-.4,.5l-.4,.5l-.5,.5l-.4,.5l-.5,.4l-.5,.4l-.6,.4l-.6,.3l-.5,.3l-.6,.3l-.6,.2l-.7,.3l-.6,.2l-.7,.1l-.6,.1l-.7,.1l-.6,.1h-.6l-50.6,.1v-.1h-.7l-.6,-.1l-.7,-.1h-.6l-.7,-.2l-.6,-.2l-.6,-.2l-.6,-.3l-.6,-.3l-.6,-.3l-.6,-.3l-.5,-.4l-.6,-.4l-.4,-.4l-.5,-.5l-.5,-.4l-.4,-.5l-.4,-.5l-.4,-.6l-.3,-.6l-.3,-.5l-.4,-.6l-.2,-.6l-.2,-.7l-.2,-.6l-.1,-.6l-.2,-.7v-.6l-.1,-.7V191.1Z" class="g2"/>
<path fill-rule="evenodd" d="M791.8,191.1v-.6l.1,-.7l.1,-.7v-.6l.2,-.6l.2,-.7l.2,-.6l.3,-.6l.3,-.6l.3,-.6l.3,-.5l.4,-.6l.4,-.5l.4,-.5l.5,-.5l.4,-.4l.6,-.5l.5,-.4l.5,-.4l.6,-.3l.6,-.3l.6,-.3l.6,-.3l.6,-.2l.6,-.2l.6,-.1l.7,-.1l.7,-.1l.6,-.1h51.9l.6,.1l.7,.1l.7,.1l.6,.1l.6,.2l.6,.2l.6,.3l.6,.3l.6,.3l.6,.3l.5,.4l.6,.4l.5,.5l.4,.4l.5,.5l.4,.5l.4,.5l.4,.6l.3,.5l.3,.6l.3,.6l.3,.6l.2,.6l.2,.7l.2,.6l.1,.6v.7l.1,.7v.6l.1,395.3h-.1v.6l-.1,.7v.6l-.1,.7l-.2,.6l-.2,.7l-.2,.6l-.3,.6l-.3,.6l-.3,.6l-.3,.5l-.4,.6l-.4,.5l-.4,.5l-.5,.5l-.4,.4l-.5,.5l-.5,.4l-.6,.3l-.6,.4l-.5,.3l-.6,.3l-.6,.2l-.6,.3l-.7,.1l-.6,.2l-.7,.1l-.6,.1l-.7,.1H803.7l-.6,-.1l-.7,-.1l-.6,-.1l-.7,-.2l-.6,-.1l-.6,-.2l-.6,-.3l-.6,-.3l-.6,-.3l-.6,-.4l-.5,-.3l-.5,-.4l-.5,-.4l-.5,-.5l-.5,-.5l-.4,-.5l-.4,-.5l-.4,-.5l-.3,-.6l-.3,-.6l-.3,-.6l-.3,-.6l-.2,-.6l-.2,-.6l-.1,-.7l-.1,-.6l-.1,-.7l-.1,-.6v-396Z" class="g1"/>
<path d="M791.8,191.1v-.6l.1,-.7l.1,-.7v-.6l.2,-.6l.2,-.7l.2,-.6l.3,-.6l.3,-.6l.3,-.6l.3,-.5l.4,-.6l.4,-.5l.4,-.5l.5,-.5l.4,-.4l.6,-.5l.5,-.4l.5,-.4l.6,-.3l.6,-.3l.6,-.3l.6,-.3l.6,-.2l.6,-.2l.6,-.1l.7,-.1l.7,-.1l.6,-.1h51.9l.6,.1l.7,.1l.7,.1l.6,.1l.6,.2l.6,.2l.6,.3l.6,.3l.6,.3l.6,.3l.5,.4l.6,.4l.5,.5l.4,.4l.5,.5l.4,.5l.4,.5l.4,.6l.3,.5l.3,.6l.3,.6l.3,.6l.2,.6l.2,.7l.2,.6l.1,.6v.7l.1,.7v.6l.1,395.3h-.1v.6l-.1,.7v.6l-.1,.7l-.2,.6l-.2,.7l-.2,.6l-.3,.6l-.3,.6l-.3,.6l-.3,.5l-.4,.6l-.4,.5l-.4,.5l-.5,.5l-.4,.4l-.5,.5l-.5,.4l-.6,.3l-.6,.4l-.5,.3l-.6,.3l-.6,.2l-.6,.3l-.7,.1l-.6,.2l-.7,.1l-.6,.1l-.7,.1H803.7l-.6,-.1l-.7,-.1l-.6,-.1l-.7,-.2l-.6,-.1l-.6,-.2l-.6,-.3l-.6,-.3l-.6,-.3l-.6,-.4l-.5,-.3l-.5,-.4l-.5,-.4l-.5,-.5l-.5,-.5l-.4,-.5l-.4,-.5l-.4,-.5l-.3,-.6l-.3,-.6l-.3,-.6l-.3,-.6l-.2,-.6l-.2,-.6l-.1,-.7l-.1,-.6l-.1,-.7l-.1,-.6v-396Z" class="g2"/>
<path fill-rule="evenodd" d="M914.3,191.1v-.6l.1,-.7l.1,-.7l.1,-.6l.2,-.6l.1,-.7l.3,-.6l.2,-.6l.3,-.6l.3,-.6l.4,-.5l.4,-.6l.4,-.5l.4,-.5l.4,-.5l.5,-.4l.5,-.5l.5,-.4l.6,-.4l.6,-.3l.5,-.3l.6,-.3l.6,-.3l.6,-.2l.7,-.2l.6,-.1l.7,-.1l.6,-.1l.7,-.1h51.8l.7,.1l.7,.1l.6,.1l.6,.1l.7,.2l.6,.2l.6,.3l.6,.3l.6,.3l.5,.3l.6,.4l.5,.4l.5,.5l.5,.4l.4,.5l.5,.5l.4,.5l.4,.6l.3,.5l.3,.6l.3,.6l.3,.6l.2,.6l.2,.7l.1,.6l.1,.6l.1,.7l.1,.7V426.4l-.1,.6l-.1,.7l-.1,.6l-.1,.7l-.2,.6l-.2,.6l-.3,.6l-.3,.6l-.3,.6l-.3,.6l-.4,.5l-.4,.5l-.4,.5l-.5,.5l-.5,.5l-.4,.4l-.6,.4l-.5,.4l-.6,.3l-.6,.3l-.6,.3l-.6,.2l-.6,.3l-.6,.2l-.7,.1l-.6,.1l-.7,.1l-.6,.1h-.7l-50.6,.1v-.1h-.6l-.7,-.1l-.6,-.1h-.7l-.6,-.2l-.7,-.2l-.6,-.2l-.6,-.3l-.6,-.3l-.5,-.3l-.6,-.3l-.6,-.4l-.5,-.4l-.5,-.4l-.4,-.5l-.5,-.4l-.4,-.5l-.4,-.5l-.4,-.6L916,432l-.3,-.5l-.3,-.6l-.2,-.6l-.3,-.7l-.1,-.6l-.2,-.6l-.1,-.7l-.1,-.6l-.1,-.7V191.1Z" class="g1"/>
<path d="M914.3,191.1v-.6l.1,-.7l.1,-.7l.1,-.6l.2,-.6l.1,-.7l.3,-.6l.2,-.6l.3,-.6l.3,-.6l.4,-.5l.4,-.6l.4,-.5l.4,-.5l.4,-.5l.5,-.4l.5,-.5l.5,-.4l.6,-.4l.6,-.3l.5,-.3l.6,-.3l.6,-.3l.6,-.2l.7,-.2l.6,-.1l.7,-.1l.6,-.1l.7,-.1h51.8l.7,.1l.7,.1l.6,.1l.6,.1l.7,.2l.6,.2l.6,.3l.6,.3l.6,.3l.5,.3l.6,.4l.5,.4l.5,.5l.5,.4l.4,.5l.5,.5l.4,.5l.4,.6l.3,.5l.3,.6l.3,.6l.3,.6l.2,.6l.2,.7l.1,.6l.1,.6l.1,.7l.1,.7V426.4l-.1,.6l-.1,.7l-.1,.6l-.1,.7l-.2,.6l-.2,.6l-.3,.6l-.3,.6l-.3,.6l-.3,.6l-.4,.5l-.4,.5l-.4,.5l-.5,.5l-.5,.5l-.4,.4l-.6,.4l-.5,.4l-.6,.3l-.6,.3l-.6,.3l-.6,.2l-.6,.3l-.6,.2l-.7,.1l-.6,.1l-.7,.1l-.6,.1h-.7l-50.6,.1v-.1h-.6l-.7,-.1l-.6,-.1h-.7l-.6,-.2l-.7,-.2l-.6,-.2l-.6,-.3l-.6,-.3l-.5,-.3l-.6,-.3l-.6,-.4l-.5,-.4l-.5,-.4l-.4,-.5l-.5,-.4l-.4,-.5l-.4,-.5l-.4,-.6L916,432l-.3,-.5l-.3,-.6l-.2,-.6l-.3,-.7l-.1,-.6l-.2,-.6l-.1,-.7l-.1,-.6l-.1,-.7V191.1Z" class="g2"/>
</g>

<!-- Any embedded fonts defined here -->
<style type="text/css" ><![CDATA[

@font-face {
	font-family: DejaVuSans_9;
	src: url("fonts/DejaVuSans_9.woff") format("woff");
}

]]></style>

</svg>
